<svg width="186" height="40" viewBox="0 0 186 40" fill="none" xmlns="http://www.w3.org/2000/svg">
<path d="M0 9.93646L17.21 19.872V39.7441L0 29.8085V9.93646Z" fill="#EA7824"/>
<path d="M34.4191 9.93647L17.21 0L0 9.93647H34.4191Z" fill="#46B8E9"/>
<path d="M17.21 39.7441L34.4191 29.8085V9.93646L17.21 39.7441Z" fill="#F04F23"/>
<path d="M53.5547 18.9738C55.2213 18.2108 56.0125 16.912 55.9277 15.1606C55.8393 11.6304 53.6962 9.90815 49.5161 9.93644C46.0681 9.93644 43.9525 11.2918 43.1338 14.059C42.766 15.4435 43.2461 16.1213 44.574 16.0925H46.6074C46.6958 14.0307 47.6242 13.014 49.3756 13.014C51.127 13.014 51.9739 13.8327 51.9457 15.4426C51.9457 17.3877 50.7026 18.095 48.5861 18.095H48.1626V20.7216H48.7558C51.2693 20.7499 52.5115 21.7384 52.5115 23.6586C52.5115 25.5789 51.4665 26.5108 49.4056 26.5391C47.3448 26.5674 46.298 25.494 46.2706 23.32H42.4574C42.232 27.5841 44.5475 29.7307 49.3773 29.7307C54.2346 29.7024 56.635 27.6088 56.635 23.4889C56.6332 21.2053 55.6165 19.7085 53.5547 18.9738Z" fill="white"/>
<path d="M65.8394 9.93561H60.304C58.9778 9.9639 58.3271 10.6703 58.3271 11.9973V29.7343H64.7935C66.5449 29.7343 67.9002 29.5928 68.8604 29.3391C72.5604 28.3507 74.5938 24.8478 74.5938 20.132C74.5947 14.0034 71.9397 9.93561 65.8394 9.93561ZM65.331 26.2624H62.1969V13.297H65.8394C69.3979 13.297 70.5844 16.2906 70.5844 20.132C70.5844 24.1706 69.2291 26.2624 65.331 26.2624Z" fill="white"/>
<path d="M76.4017 11.9973V29.7343H80.3272V9.93561H78.3821C77.0507 9.93561 76.4017 10.642 76.4017 11.9973Z" fill="white"/>
<path d="M88.9411 17.5902C90.1276 17.5902 90.918 18.1269 91.3698 19.1436H95.4649C94.8151 15.8954 92.6694 14.281 89.0543 14.281C84.4507 14.3694 82.1627 16.9333 82.1627 22.0479C82.2758 27.1881 84.5913 29.7865 89.11 29.7865C92.5845 29.8749 94.7868 27.9219 95.4649 24.8717H92.6429C92.4055 24.8693 92.1702 24.9157 91.9515 25.008C91.7328 25.1003 91.5354 25.2366 91.3715 25.4084C90.7526 26.1156 89.9879 26.4817 89.1117 26.4817C87.0226 26.51 85.9776 25.0132 85.9776 22.0479C85.9776 19.0826 86.9642 17.5902 88.9411 17.5902Z" fill="white"/>
<path d="M104.106 14.2854C99.5875 14.2854 97.3277 16.8555 97.3277 22.0523C97.3277 27.1925 99.5875 29.7909 104.106 29.7909C108.625 29.7909 110.914 27.1925 110.914 22.0523C110.913 16.8555 108.625 14.2854 104.106 14.2854ZM104.078 26.4295C102.158 26.4295 101.169 24.961 101.141 22.0523C101.141 19.087 102.129 17.5902 104.106 17.5902C106.026 17.5902 106.987 19.0304 106.987 21.9391C106.959 24.9044 105.998 26.4295 104.078 26.4295Z" fill="white"/>
<path d="M119.131 14.2854C114.866 14.2854 112.719 16.4073 112.719 20.6686V29.7343H116.532V19.9057C116.561 18.3523 117.408 17.5902 119.074 17.5902C120.741 17.5902 121.588 18.3523 121.672 19.9057V27.8706C121.672 29.0562 122.29 29.6494 123.536 29.7343H125.456V20.6686C125.485 16.4037 123.395 14.2854 119.131 14.2854Z" fill="white"/>
<path d="M135.651 9.93561H129.127C128.026 9.93561 127.15 10.8957 127.15 11.9973V29.7343H131.076V22.6172H135.934C139.775 22.6172 141.836 19.9057 141.836 16.1208C141.836 12.1105 139.718 9.93561 135.651 9.93561ZM134.944 19.1436H131.131V13.266H135.141C136.976 13.266 137.909 14.1979 137.909 16.0616C137.909 17.9253 136.922 19.1719 134.946 19.1436H134.944Z" fill="white"/>
<path d="M149.546 14.2854C146.098 14.2854 144.153 15.6407 143.699 18.4089H147.457C147.655 17.7016 148.389 17.3639 149.716 17.3639C151.27 17.3639 152.061 17.7873 152.146 18.6352C152.146 19.4539 151.326 19.9339 149.716 20.132C145.932 20.4989 143.334 21.4581 143.249 25.0459C143.249 28.3506 145.734 30.0163 149.321 29.7316C153.36 29.4496 155.845 27.6098 155.845 23.4898V18.4062C155.759 15.6407 153.669 14.2854 149.546 14.2854ZM152.198 23.3236C152.198 25.4455 150.928 26.6832 148.838 26.6832C147.652 26.6832 147.031 26.1183 146.946 24.9318C146.946 23.8302 147.708 23.1247 149.205 22.8418C150.23 22.638 151.232 22.3354 152.199 21.9382L152.198 23.3236Z" fill="white"/>
<path d="M164.315 17.5902C165.502 17.5902 166.292 18.1269 166.744 19.1436H170.839C170.189 15.8954 168.044 14.281 164.429 14.281C159.824 14.3694 157.537 16.9333 157.537 22.0479C157.65 27.1881 159.966 29.7865 164.484 29.7865C167.959 29.8749 170.161 27.9219 170.839 24.8717H168.015C167.778 24.8693 167.543 24.9157 167.324 25.008C167.105 25.1003 166.908 25.2366 166.744 25.4084C166.125 26.1156 165.36 26.4817 164.484 26.4817C162.394 26.51 161.35 25.0132 161.35 22.0479C161.35 19.0826 162.339 17.5902 164.315 17.5902Z" fill="white"/>
<path d="M180.554 20.5838L185.722 15.0484H181.204L176.572 20.3574V11.7719C176.572 10.7835 175.752 9.93561 174.764 9.93561H172.819V29.7343H176.575V24.0009C176.575 23.6057 176.773 23.351 177.169 23.267C177.648 23.267 178.129 23.6905 178.609 24.5375L181.481 29.7343H186L180.554 20.5838Z" fill="white"/>
</svg>
