<svg width="40" height="40" viewBox="0 0 40 40" fill="none" xmlns="http://www.w3.org/2000/svg">
<rect x="0.5" y="0.5" width="39" height="39" rx="19.5" stroke="#292929"/>
<path d="M18.8728 18.553C19.2557 17.9785 19.4472 17.3084 19.4472 16.5424C19.4472 14.5319 17.7239 13 15.809 13H10.2561C9.96883 13 9.77734 13.1915 9.77734 13.4787V25.6378C9.77734 25.9251 9.96883 26.1165 10.2561 26.1165H16.3835C18.6813 26.1165 20.5961 24.2975 20.5961 21.9997C20.5961 20.5636 19.9259 19.3189 18.8728 18.553ZM12.1709 15.4893H15.809C16.4792 15.4893 16.9579 16.0637 16.9579 16.6382C16.9579 17.3084 16.3835 17.7871 15.809 17.7871H12.1709V15.4893ZM16.4792 23.723H12.1709V20.2763H16.4792C17.4366 20.2763 18.2026 21.0423 18.2026 21.9997C18.2026 22.9571 17.4366 23.723 16.4792 23.723Z" fill="white"/>
<path d="M31.2234 21.138C31.2234 18.2658 29.0213 15.968 26.2448 15.968C23.4683 15.968 21.2663 18.2658 21.2663 21.138C21.2663 24.0103 23.4683 26.308 26.2448 26.308C27.8724 26.308 29.4043 25.4464 30.3617 24.0103C30.4575 23.8188 30.5532 23.6273 30.6489 23.4358C30.7447 23.3401 30.6489 23.1486 30.4575 23.1486H28.0639C27.9682 23.1486 27.9682 23.1486 27.8724 23.2443C27.3937 23.723 26.8193 23.9145 26.2448 23.9145C25.0002 23.9145 24.0428 23.0528 23.7556 21.8082H30.7447C31.0319 21.8082 31.2234 21.6167 31.2234 21.3295V21.138ZM26.2448 18.4573C27.1065 18.4573 27.8724 18.936 28.3511 19.7019H24.1385C24.5215 18.936 25.3832 18.4573 26.2448 18.4573Z" fill="white"/>
<path d="M28.2554 15.3935H23.8513C23.6598 15.3935 23.4683 15.2021 23.4683 15.0106V13.9574C23.4683 13.7659 23.6598 13.5745 23.8513 13.5745H28.2554C28.4469 13.5745 28.6384 13.7659 28.6384 13.9574V15.1063C28.6384 15.2021 28.5426 15.3935 28.2554 15.3935Z" fill="white"/>
</svg>
