<svg width="37" height="30" viewBox="0 0 37 30" fill="none" xmlns="http://www.w3.org/2000/svg">
<path d="M14.5476 16.6523C14.6823 14.2517 15.86 12.1366 17.6366 10.6374C19.3794 9.16448 21.7242 8.26465 24.2835 8.26465C26.8428 8.26465 29.1853 9.16448 30.9289 10.6374C32.7041 12.1366 33.8825 14.2517 34.0179 16.65C34.1526 19.1167 33.1593 21.4083 31.4173 23.1065C29.6406 24.8341 27.1129 25.9187 24.2835 25.9187C21.4541 25.9187 18.9212 24.8348 17.146 23.1065C15.4024 21.4083 14.4114 19.1167 14.5476 16.6523Z" fill="white"/>
<path d="M19.2881 16.8683C19.3574 15.6365 19.9616 14.5511 20.8737 13.782C21.7676 13.0264 22.9709 12.5645 24.284 12.5645C25.5971 12.5645 26.7989 13.0264 27.6936 13.782C28.6049 14.5511 29.2092 15.6365 29.2792 16.8668C29.3484 18.1324 28.8389 19.3079 27.9442 20.1799C27.0322 21.0662 25.7356 21.6228 24.284 21.6228C22.8324 21.6228 21.5329 21.0662 20.6216 20.1799C19.7268 19.3087 19.2181 18.1324 19.2881 16.8683Z" fill="#265787"/>
<path d="M11.3325 19.3567C11.3408 19.8389 11.4951 20.7756 11.7261 21.5071C12.2115 23.0552 13.0355 24.4883 14.1815 25.7501C15.3577 27.0481 16.8055 28.0898 18.4783 28.8297C20.2362 29.6071 22.1415 30.0029 24.1199 29.9999C26.0952 29.9977 28.0006 29.5936 29.7584 28.8102C31.4312 28.0628 32.8776 27.0165 34.0522 25.7178C35.1975 24.45 36.02 23.0154 36.5069 21.4666C36.7515 20.6839 36.9065 19.89 36.9682 19.0938C37.0291 18.3089 37.0036 17.5225 36.8922 16.7368C36.674 15.2061 36.1434 13.77 35.3262 12.4608C34.579 11.2575 33.6158 10.2045 32.4705 9.31815L32.4727 9.3159L20.9142 0.458084C20.9037 0.450573 20.8954 0.44156 20.8841 0.4348C20.1256 -0.146558 18.8508 -0.144304 18.0163 0.437804C17.1735 1.02667 17.0764 2.00086 17.8267 2.61451L17.8237 2.61752L22.6442 6.53079L7.95077 6.54656H7.93121C6.71666 6.54807 5.54953 7.34349 5.31851 8.34847C5.08071 9.37223 5.90621 10.2217 7.16892 10.2262L7.16666 10.2307L14.6142 10.2165L1.32495 20.3985C1.30765 20.4105 1.28958 20.424 1.27378 20.4361C0.0201062 21.3945 -0.385495 22.9876 0.404637 23.9956C1.20606 25.0208 2.90973 25.0231 4.17695 24.0016L11.4304 18.0768C11.4304 18.0768 11.325 18.8768 11.3333 19.3567H11.3325ZM29.9706 22.0352C28.4761 23.5546 26.3842 24.4169 24.1199 24.4214C21.8526 24.4252 19.7606 23.5712 18.2661 22.0539C17.5362 21.3148 16.9997 20.4638 16.6686 19.558C16.3442 18.6672 16.2186 17.7223 16.3021 16.7684C16.3811 15.8363 16.6588 14.947 17.1028 14.1425C17.5385 13.3516 18.139 12.6373 18.8802 12.0327C20.3325 10.8512 22.1822 10.2112 24.1169 10.209C26.0531 10.2067 27.9012 10.8399 29.3551 12.0176C30.0948 12.6193 30.6945 13.3313 31.131 14.1207C31.5765 14.9244 31.8526 15.8107 31.9347 16.7451C32.0167 17.6975 31.891 18.6417 31.5667 19.5325C31.2348 20.4413 30.7006 21.2916 29.9706 22.0344V22.0352Z" fill="#EA7600"/>
</svg>
