<svg width="21" height="23" viewBox="0 0 21 23" fill="none" xmlns="http://www.w3.org/2000/svg">
<g opacity="0.5">
<path d="M1 5.10645H3.05312H19.4781" stroke="#1B1B1B" stroke-width="2" stroke-linecap="round" stroke-linejoin="round"/>
<path d="M17.4251 5.10625V19.4781C17.4251 20.0226 17.2088 20.5449 16.8238 20.9299C16.4387 21.3149 15.9165 21.5312 15.372 21.5312H5.10637C4.56185 21.5312 4.03963 21.3149 3.65459 20.9299C3.26956 20.5449 3.05325 20.0226 3.05325 19.4781V5.10625M6.13293 5.10625V3.05312C6.13293 2.5086 6.34924 1.98638 6.73428 1.60135C7.11932 1.21631 7.64154 1 8.18606 1H12.2923C12.8368 1 13.3591 1.21631 13.7441 1.60135C14.1291 1.98638 14.3454 2.5086 14.3454 3.05312V5.10625" stroke="#1B1B1B" stroke-width="2" stroke-linecap="round" stroke-linejoin="round"/>
</g>
</svg>
