<svg width="20" height="30" viewBox="0 0 20 30" fill="none" xmlns="http://www.w3.org/2000/svg">
<path d="M5 30C7.76143 30 10 27.7614 10 25V20H5C2.23857 20 0 22.2386 0 25C0 27.7614 2.23857 30 5 30Z" fill="#0ACF83"/>
<path d="M0 15C0 12.2386 2.23857 10 5 10H10V20H5C2.23857 20 0 17.7614 0 15Z" fill="#A259FF"/>
<path d="M0 5C0 2.23857 2.23857 0 5 0H10V10H5C2.23857 10 0 7.76143 0 5Z" fill="#F24E1E"/>
<path d="M10 0H15C17.7614 0 20 2.23857 20 5C20 7.76143 17.7614 10 15 10H10V0Z" fill="#FF7262"/>
<path d="M20 15C20 17.7614 17.7614 20 15 20C12.2386 20 10 17.7614 10 15C10 12.2386 12.2386 10 15 10C17.7614 10 20 12.2386 20 15Z" fill="#1ABCFE"/>
</svg>
