<svg width="40" height="40" viewBox="0 0 40 40" fill="none" xmlns="http://www.w3.org/2000/svg">
<circle cx="20" cy="20" r="19.5" stroke="#292929"/>
<path fill-rule="evenodd" clip-rule="evenodd" d="M16 16C13.7909 16 12 14.2091 12 12C12 9.79086 13.7909 8 16 8H20H24C26.2091 8 28 9.79086 28 12C28 14.2091 26.2091 16 24 16H20V20V24V28C20 30.2091 18.2091 32 16 32C13.7909 32 12 30.2091 12 28C12 25.7909 13.7909 24 16 24C13.7909 24 12 22.2091 12 20C12 17.7909 13.7909 16 16 16ZM20 20C20 22.2091 21.7909 24 24 24C26.2091 24 28 22.2091 28 20C28 17.7909 26.2091 16 24 16C21.7909 16 20 17.7909 20 20Z" fill="#DADADA"/>
</svg>
