<svg width="24" height="23" viewBox="0 0 24 23" fill="none" xmlns="http://www.w3.org/2000/svg">
<path d="M21.8962 1L19.6887 3.20752M19.6887 3.20752L23 6.51879L19.1368 10.3819L15.8256 7.07067M19.6887 3.20752L15.8256 7.07067M11.2891 11.6071C11.859 12.1694 12.3121 12.8389 12.6222 13.5771C12.9323 14.3152 13.0933 15.1074 13.096 15.908C13.0987 16.7087 12.943 17.5019 12.6378 18.2421C12.3327 18.9823 11.8841 19.6549 11.318 20.221C10.7519 20.7871 10.0793 21.2357 9.33913 21.5408C8.59893 21.846 7.80567 22.0017 7.00505 21.999C6.20442 21.9963 5.41222 21.8353 4.67408 21.5252C3.93594 21.2151 3.26644 20.7621 2.70411 20.1921C1.59829 19.0472 0.986398 17.5137 1.00023 15.922C1.01406 14.3303 1.65251 12.8077 2.77806 11.6822C3.90361 10.5566 5.42621 9.91817 7.01792 9.90434C8.60963 9.8905 10.1431 10.5024 11.288 11.6082L11.2891 11.6071ZM11.2891 11.6071L15.8256 7.07067" stroke="#1B1B1B" stroke-width="2" stroke-linecap="round" stroke-linejoin="round"/>
</svg>
