<svg width="60" height="60" viewBox="0 0 60 60" fill="none" xmlns="http://www.w3.org/2000/svg">
<path d="M60 30C60 46.5685 46.5685 60 30 60C13.4315 60 0 46.5685 0 30C0 13.4315 13.4315 0 30 0C46.5685 0 60 13.4315 60 30Z" fill="#FF813F"/>
<path d="M30.8127 29.2441C29.6273 29.7516 28.2821 30.3269 26.5387 30.3269C25.8093 30.3254 25.0835 30.2255 24.3812 30.0294L25.5869 42.4092C25.6294 42.9265 25.8653 43.409 26.2471 43.7607C26.629 44.1123 27.1293 44.3074 27.6484 44.3074C27.6484 44.3074 29.358 44.3961 29.9284 44.3961C30.5425 44.3961 32.3834 44.3074 32.3834 44.3074C32.9026 44.3074 33.4026 44.1121 33.7845 43.7604C34.1663 43.4087 34.4019 42.9265 34.4447 42.4092L35.7361 28.7293C35.1589 28.5322 34.5766 28.4014 33.9199 28.4014C32.7844 28.4009 31.8697 28.7918 30.8127 29.2441Z" fill="white"/>
<path d="M41.3123 22.82L41.1307 21.904C40.9676 21.0822 40.5979 20.3059 39.7544 20.0089C39.484 19.914 39.1772 19.8732 38.9701 19.6763C38.7626 19.4797 38.7015 19.1742 38.6535 18.8909C38.5647 18.371 38.4811 17.8506 38.3903 17.3318C38.3116 16.8856 38.2497 16.3843 38.0448 15.9751C37.7786 15.4256 37.2256 15.1041 36.6761 14.8915C36.3946 14.7865 36.1071 14.6974 35.8153 14.6252C34.4422 14.2629 32.9983 14.1298 31.5857 14.054C29.8901 13.9603 28.19 13.9887 26.4985 14.1383C25.2394 14.2529 23.9134 14.3914 22.717 14.827C22.2797 14.9864 21.8292 15.1776 21.4966 15.5156C21.0887 15.9307 20.9553 16.5727 21.2533 17.0903C21.4651 17.4579 21.8238 17.7175 22.2044 17.8893C22.7 18.1107 23.2176 18.2792 23.7483 18.3919C25.2267 18.7186 26.7578 18.8471 28.2682 18.9015C29.9422 18.9691 31.6187 18.9144 33.2847 18.7377C33.6968 18.6925 34.1081 18.6381 34.5186 18.5749C35.0021 18.5008 35.3122 17.8684 35.1698 17.428C34.9992 16.9014 34.541 16.6973 34.0232 16.7768C33.9468 16.7886 33.8709 16.7997 33.7946 16.8108L33.7396 16.8188C33.5642 16.841 33.3887 16.8617 33.213 16.881C32.8505 16.92 32.487 16.952 32.1226 16.977C31.3065 17.0337 30.4884 17.0601 29.6707 17.0614C28.8673 17.0614 28.0633 17.0387 27.2614 16.9858C26.8955 16.9618 26.5307 16.9313 26.1667 16.8944C26.001 16.8771 25.8359 16.8588 25.6708 16.8384L25.5136 16.8186L25.3165 16.7902C24.9837 16.7401 24.6506 16.6823 24.3211 16.6127C24.2878 16.6052 24.2581 16.5869 24.2367 16.5603C24.2153 16.5337 24.2037 16.5007 24.2037 16.4666C24.2037 16.4326 24.2153 16.3996 24.2367 16.373C24.2581 16.3464 24.2878 16.3278 24.3211 16.3206H24.3273C24.6126 16.2597 24.9003 16.2078 25.189 16.1624C25.2853 16.1475 25.3818 16.1325 25.4785 16.1181H25.4811C25.6617 16.1062 25.8434 16.0737 26.0232 16.0523C27.5875 15.8895 29.1612 15.834 30.733 15.8861C31.4962 15.9083 32.2589 15.9532 33.0185 16.0303C33.1818 16.0471 33.3443 16.0649 33.5069 16.085C33.5691 16.0925 33.6315 16.1015 33.6942 16.109L33.8204 16.1273C34.188 16.182 34.5536 16.2486 34.9174 16.3268C35.4564 16.4439 36.1484 16.4821 36.3884 17.0727C36.4647 17.26 36.4993 17.4682 36.5416 17.6648L36.5953 17.9156C36.5966 17.92 36.5976 17.9247 36.5984 17.9293C36.7253 18.5212 36.8525 19.1131 36.9797 19.7052C36.989 19.7491 36.9893 19.7942 36.9803 19.8378C36.9715 19.8817 36.9534 19.9232 36.9279 19.9599C36.9023 19.9965 36.8693 20.0275 36.8311 20.0507C36.7929 20.0739 36.7504 20.0891 36.7062 20.0953H36.7026L36.625 20.1059L36.5481 20.1162C36.3048 20.148 36.0612 20.1776 35.8174 20.205C35.337 20.2597 34.856 20.3072 34.3741 20.3472C33.4166 20.4266 32.4573 20.479 31.4959 20.5038C31.0062 20.5167 30.5165 20.5229 30.0268 20.5221C28.0783 20.5205 26.1316 20.4073 24.196 20.1828C23.9864 20.158 23.7769 20.1312 23.5672 20.1044C23.7297 20.1253 23.449 20.0884 23.3922 20.0804C23.2591 20.0618 23.126 20.0424 22.9926 20.0223C22.5454 19.9552 22.1011 19.8727 21.655 19.8004C21.1155 19.7117 20.5998 19.756 20.1119 20.0223C19.7114 20.2414 19.3871 20.5776 19.1828 20.9857C18.9722 21.4207 18.9098 21.8945 18.8156 22.362C18.7214 22.8295 18.5749 23.3324 18.6304 23.8123C18.7498 24.8479 19.4738 25.6898 20.5154 25.8779C21.4951 26.0554 22.4804 26.1994 23.4681 26.322C27.3484 26.7972 31.2684 26.854 35.1608 26.4915C35.4776 26.4618 35.7942 26.4296 36.1102 26.3947C36.2091 26.3839 36.3089 26.3952 36.4026 26.428C36.4962 26.4608 36.5816 26.5142 36.6521 26.5841C36.7225 26.654 36.7764 26.7389 36.81 26.8323C36.8435 26.9257 36.8556 27.0256 36.8453 27.1244L36.7468 28.0824C36.5481 30.0183 36.3497 31.9541 36.151 33.8898C35.9438 35.9224 35.7353 37.955 35.5256 39.9874C35.4665 40.5599 35.4072 41.1322 35.3481 41.7042C35.2913 42.2677 35.2833 42.8488 35.1762 43.4055C35.0075 44.281 34.4148 44.8187 33.55 45.0153C32.7576 45.1956 31.9482 45.2903 31.1357 45.2976C30.235 45.3025 29.3345 45.2625 28.4338 45.2674C27.4722 45.2728 26.2944 45.184 25.5521 44.4683C24.8998 43.8398 24.8098 42.8555 24.721 42.0043C24.6026 40.8775 24.4852 39.7511 24.3688 38.6246L23.2942 28.3079C23.287 28.2408 23.28 28.1748 23.2733 28.1072C23.2227 27.6236 22.8803 27.1504 22.3411 27.175C21.8795 27.1953 21.3547 27.5878 21.4089 28.1072L22.3692 37.327C22.5537 39.0923 22.7377 40.8582 22.9211 42.6243C22.9567 42.9625 22.99 43.3018 23.0272 43.6401C23.23 45.4888 24.6418 46.4849 26.3901 46.7654C27.4113 46.9298 28.457 46.9636 29.4932 46.9803C30.8215 47.0017 32.1631 47.0528 33.4697 46.8121C35.4059 46.4568 36.8585 45.1642 37.0657 43.1589C37.1247 42.5799 37.1841 42.0009 37.2432 41.4217C37.44 39.5062 37.6364 37.5904 37.8327 35.6747L38.7691 26.5462C38.7838 26.404 38.8439 26.2701 38.9404 26.1646C39.0369 26.0591 39.1649 25.9876 39.3055 25.9605C39.8592 25.8526 40.3884 25.6684 40.7821 25.2471C41.4088 24.5763 41.5339 23.7018 41.3123 22.82ZM20.487 23.4389C20.4955 23.4351 20.4798 23.5073 20.4733 23.5411C20.472 23.49 20.4746 23.4449 20.487 23.4389ZM20.5407 23.8546C20.5451 23.8515 20.5585 23.8693 20.5722 23.8905C20.5513 23.8708 20.5386 23.8561 20.5407 23.8546ZM20.5936 23.9243C20.623 23.9771 20.6127 23.9568 20.5936 23.9243ZM20.6996 24.0104H20.7022C20.7022 24.0135 20.7071 24.0166 20.7089 24.0197C20.7061 24.0164 20.7032 24.0133 20.6996 24.0104ZM39.2797 23.8817C39.0807 24.0708 38.7812 24.1588 38.485 24.2026C35.1644 24.6955 31.7952 24.945 28.438 24.8348C26.0353 24.7527 23.658 24.4859 21.2794 24.1498C21.0464 24.117 20.7938 24.0744 20.6333 23.9026C20.3314 23.5785 20.4798 22.926 20.5582 22.5343C20.6302 22.1757 20.7677 21.6976 21.1945 21.6465C21.8604 21.5683 22.6337 21.8493 23.2927 21.9492C24.0858 22.0702 24.882 22.1672 25.6811 22.2399C29.0915 22.5508 32.5592 22.5023 35.9544 22.0477C36.5734 21.9646 37.19 21.8679 37.8044 21.7577C38.3519 21.6597 38.9587 21.4754 39.2895 22.0423C39.5163 22.4285 39.5465 22.9453 39.5114 23.3816C39.5005 23.5718 39.418 23.7509 39.2797 23.8817Z" fill="#0D0C22"/>
</svg>
