<svg width="120" height="110" viewBox="0 0 120 110" fill="none" xmlns="http://www.w3.org/2000/svg">
<g filter="url(#filter0_d_401_5394)">
<circle cx="60" cy="60" r="30" fill="#FF813F"/>
<circle cx="60" cy="60" r="29.5" stroke="#292929"/>
</g>
<path d="M60.8124 59.244C59.627 59.7516 58.2818 60.3269 56.5384 60.3269C55.809 60.3254 55.0832 60.2255 54.3809 60.0294L55.5866 72.4092C55.6291 72.9265 55.865 73.409 56.2468 73.7606C56.6287 74.1123 57.129 74.3074 57.6481 74.3074C57.6481 74.3074 59.3577 74.3961 59.9281 74.3961C60.5422 74.3961 62.3831 74.3074 62.3831 74.3074C62.9023 74.3074 63.4023 74.1121 63.7842 73.7604C64.166 73.4087 64.4016 72.9265 64.4444 72.4092L65.7358 58.7293C65.1586 58.5322 64.5763 58.4014 63.9196 58.4014C62.7841 58.4009 61.8689 58.792 60.8118 59.2443L60.8124 59.244Z" fill="white"/>
<path d="M71.3123 52.82L71.1307 51.904C70.9676 51.0822 70.5979 50.3059 69.7544 50.0089C69.484 49.914 69.1772 49.8732 68.9701 49.6763C68.7626 49.4797 68.7015 49.1742 68.6535 48.8909C68.5647 48.371 68.4811 47.8506 68.3903 47.3318C68.3116 46.8856 68.2497 46.3843 68.0448 45.9751C67.7786 45.4256 67.2256 45.1041 66.6761 44.8915C66.3946 44.7865 66.1071 44.6974 65.8153 44.6252C64.4422 44.2629 62.9983 44.1298 61.5857 44.054C59.8901 43.9603 58.19 43.9887 56.4985 44.1383C55.2394 44.2529 53.9134 44.3914 52.717 44.827C52.2797 44.9864 51.8292 45.1776 51.4966 45.5156C51.0887 45.9307 50.9553 46.5727 51.2533 47.0903C51.4651 47.4579 51.8238 47.7175 52.2044 47.8893C52.7 48.1107 53.2176 48.2792 53.7483 48.3919C55.2267 48.7186 56.7578 48.8471 58.2682 48.9015C59.9422 48.9691 61.6187 48.9144 63.2847 48.7377C63.6968 48.6925 64.1081 48.6381 64.5186 48.5749C65.0021 48.5008 65.3122 47.8684 65.1698 47.428C64.9992 46.9014 64.541 46.6973 64.0232 46.7768C63.9468 46.7886 63.8709 46.7997 63.7946 46.8108L63.7396 46.8188C63.5642 46.841 63.3887 46.8617 63.213 46.881C62.8505 46.92 62.487 46.952 62.1226 46.977C61.3065 47.0337 60.4884 47.0601 59.6707 47.0614C58.8673 47.0614 58.0633 47.0387 57.2614 46.9858C56.8955 46.9618 56.5307 46.9313 56.1667 46.8944C56.001 46.8771 55.8359 46.8588 55.6708 46.8384L55.5136 46.8186L55.4796 46.8137L55.3165 46.7902C54.9837 46.7401 54.6506 46.6823 54.3211 46.6127C54.2878 46.6052 54.2581 46.5869 54.2367 46.5603C54.2153 46.5337 54.2037 46.5007 54.2037 46.4666C54.2037 46.4326 54.2153 46.3996 54.2367 46.373C54.2581 46.3464 54.2878 46.3278 54.3211 46.3206H54.3273C54.6126 46.2597 54.9003 46.2078 55.189 46.1624C55.2853 46.1475 55.3818 46.1325 55.4785 46.1181H55.4811C55.6617 46.1062 55.8434 46.0737 56.0232 46.0523C57.5875 45.8895 59.1612 45.834 60.733 45.8861C61.4962 45.9083 62.2589 45.9532 63.0185 46.0303C63.1818 46.0471 63.3443 46.0649 63.5069 46.085C63.5691 46.0925 63.6315 46.1015 63.6942 46.109L63.8204 46.1273C64.188 46.182 64.5536 46.2486 64.9174 46.3268C65.4564 46.4439 66.1484 46.4821 66.3884 47.0727C66.4647 47.26 66.4993 47.4682 66.5416 47.6648L66.5953 47.9156C66.5966 47.92 66.5976 47.9247 66.5984 47.9293C66.7253 48.5212 66.8525 49.1131 66.9797 49.7052C66.989 49.7491 66.9893 49.7942 66.9803 49.8378C66.9715 49.8817 66.9534 49.9232 66.9279 49.9599C66.9023 49.9965 66.8693 50.0275 66.8311 50.0507C66.7929 50.0739 66.7504 50.0891 66.7062 50.0953H66.7026L66.625 50.1059L66.5481 50.1162C66.3048 50.148 66.0612 50.1776 65.8174 50.205C65.337 50.2597 64.856 50.3072 64.3741 50.3472C63.4166 50.4266 62.4573 50.479 61.4959 50.5038C61.0062 50.5167 60.5165 50.5229 60.0268 50.5221C58.0783 50.5205 56.1316 50.4073 54.196 50.1828C53.9864 50.158 53.7769 50.1312 53.5672 50.1044C53.7297 50.1253 53.449 50.0884 53.3922 50.0804C53.2591 50.0618 53.126 50.0424 52.9926 50.0223C52.5454 49.9552 52.1011 49.8727 51.655 49.8004C51.1155 49.7117 50.5998 49.756 50.1119 50.0223C49.7114 50.2414 49.3871 50.5776 49.1828 50.9857C48.9722 51.4207 48.9098 51.8945 48.8156 52.362C48.7214 52.8295 48.5749 53.3324 48.6304 53.8123C48.7498 54.8479 49.4738 55.6898 50.5154 55.8779C51.4951 56.0554 52.4804 56.1994 53.4681 56.322C57.3484 56.7972 61.2684 56.854 65.1607 56.4915C65.4776 56.4618 65.7942 56.4296 66.1102 56.3947C66.2091 56.3839 66.3089 56.3952 66.4026 56.428C66.4962 56.4608 66.5816 56.5142 66.6521 56.5841C66.7225 56.654 66.7764 56.7389 66.81 56.8323C66.8435 56.9257 66.8556 57.0256 66.8453 57.1244L66.7468 58.0824C66.5481 60.0183 66.3497 61.9541 66.151 63.8898C65.9438 65.9224 65.7353 67.955 65.5256 69.9874C65.4665 70.5599 65.4072 71.1322 65.3481 71.7042C65.2913 72.2677 65.2833 72.8488 65.1762 73.4055C65.0075 74.281 64.4148 74.8187 63.55 75.0153C62.7576 75.1956 61.9482 75.2903 61.1357 75.2976C60.235 75.3025 59.3345 75.2625 58.4338 75.2674C57.4722 75.2728 56.2944 75.184 55.5521 74.4683C54.8998 73.8398 54.8098 72.8555 54.721 72.0043C54.6026 70.8775 54.4852 69.751 54.3688 68.6246L53.7163 62.3608L53.2942 58.3079C53.287 58.2408 53.28 58.1748 53.2733 58.1072C53.2227 57.6236 52.8803 57.1505 52.3411 57.175C51.8795 57.1953 51.3547 57.5878 51.4089 58.1072L51.7219 61.1117L52.3692 67.327C52.5537 69.0923 52.7377 70.8582 52.9211 72.6243C52.9567 72.9625 52.99 73.3018 53.0272 73.6401C53.23 75.4888 54.6418 76.4849 56.3901 76.7654C57.4113 76.9298 58.457 76.9636 59.4932 76.9803C60.8215 77.0017 62.1631 77.0528 63.4697 76.8121C65.4059 76.4568 66.8585 75.1642 67.0657 73.1589C67.1247 72.5799 67.1841 72.0009 67.2432 71.4217C67.44 69.5062 67.6364 67.5904 67.8327 65.6747L68.4747 59.415L68.7691 56.5462C68.7838 56.404 68.8439 56.2701 68.9404 56.1646C69.0369 56.0591 69.1649 55.9876 69.3055 55.9605C69.8592 55.8526 70.3884 55.6684 70.7821 55.2471C71.4088 54.5763 71.5337 53.7018 71.312 52.82H71.3123ZM50.487 53.4389C50.4955 53.4351 50.4798 53.5073 50.4733 53.5411C50.472 53.49 50.4746 53.4449 50.487 53.4389ZM50.5407 53.8546C50.5451 53.8515 50.5585 53.8693 50.5722 53.8905C50.5513 53.8708 50.5381 53.8561 50.5402 53.8546H50.5407ZM50.5936 53.9243C50.6127 53.9568 50.623 53.9771 50.5936 53.9243V53.9243ZM50.6996 54.0104H50.7022C50.7022 54.0135 50.7071 54.0166 50.7089 54.0197C50.7061 54.0164 50.7027 54.0133 50.6991 54.0104H50.6996ZM69.2797 53.8817C69.0807 54.0708 68.7812 54.1588 68.485 54.2026C65.1644 54.6955 61.7952 54.945 58.438 54.8348C56.0353 54.7527 53.658 54.4859 51.2794 54.1498C51.0464 54.117 50.7938 54.0744 50.6333 53.9026C50.3314 53.5785 50.4798 52.926 50.5582 52.5343C50.6302 52.1757 50.7677 51.6976 51.1945 51.6465C51.8604 51.5683 52.6337 51.8493 53.2927 51.9492C54.0858 52.0702 54.882 52.1672 55.6811 52.2399C59.0915 52.5508 62.5592 52.5023 65.9544 52.0477C66.5734 51.9646 67.19 51.8679 67.8044 51.7577C68.3519 51.6597 68.9587 51.4754 69.2895 52.0423C69.5163 52.4285 69.5465 52.9453 69.5114 53.3816C69.5005 53.5718 69.4175 53.7506 69.2792 53.8814H69.2797V53.8817Z" fill="#0D0C22"/>
<defs>
<filter id="filter0_d_401_5394" x="0" y="0" width="120" height="120" filterUnits="userSpaceOnUse" color-interpolation-filters="sRGB">
<feFlood flood-opacity="0" result="BackgroundImageFix"/>
<feColorMatrix in="SourceAlpha" type="matrix" values="0 0 0 0 0 0 0 0 0 0 0 0 0 0 0 0 0 0 127 0" result="hardAlpha"/>
<feOffset/>
<feGaussianBlur stdDeviation="15"/>
<feComposite in2="hardAlpha" operator="out"/>
<feColorMatrix type="matrix" values="0 0 0 0 0 0 0 0 0 0 0 0 0 0 0 0 0 0 0.25 0"/>
<feBlend mode="normal" in2="BackgroundImageFix" result="effect1_dropShadow_401_5394"/>
<feBlend mode="normal" in="SourceGraphic" in2="effect1_dropShadow_401_5394" result="shape"/>
</filter>
</defs>
</svg>
