<svg width="186" height="40" viewBox="0 0 186 40" fill="none" xmlns="http://www.w3.org/2000/svg">
<path d="M0 9.93652L17.21 19.8721V39.7442L0 29.8086V9.93652Z" fill="#EA7824"/>
<path d="M34.4191 9.93647L17.21 0L0 9.93647H34.4191Z" fill="#46B8E9"/>
<path d="M17.21 39.7442L34.4191 29.8086V9.93652L17.21 39.7442Z" fill="#F04F23"/>
<path d="M53.5547 18.9742C55.2212 18.2112 56.0125 16.9125 55.9276 15.161C55.8392 11.6308 53.6961 9.90857 49.5161 9.93687C46.0681 9.93687 43.9524 11.2922 43.1337 14.0594C42.7659 15.444 43.246 16.1218 44.5739 16.0929H46.6074C46.6958 14.0312 47.6241 13.0144 49.3755 13.0144C51.1269 13.0144 51.9739 13.8331 51.9456 15.4431C51.9456 17.3881 50.7025 18.0954 48.586 18.0954H48.1625V20.7221H48.7558C51.2693 20.7504 52.5114 21.7388 52.5114 23.6591C52.5114 25.5794 51.4664 26.5112 49.4056 26.5395C47.3447 26.5678 46.2979 25.4945 46.2705 23.3205H42.4574C42.2319 27.5845 44.5474 29.7311 49.3773 29.7311C54.2345 29.7028 56.6349 27.6093 56.6349 23.4893C56.6331 21.2057 55.6164 19.7089 53.5547 18.9742Z" fill="#1B1B1B"/>
<path d="M65.8394 9.93555H60.304C58.9778 9.96384 58.3271 10.6702 58.3271 11.9973V29.7342H64.7935C66.5449 29.7342 67.9002 29.5928 68.8604 29.339C72.5604 28.3506 74.5938 24.8478 74.5938 20.1319C74.5947 14.0033 71.9397 9.93555 65.8394 9.93555ZM65.331 26.2623H62.1969V13.2969H65.8394C69.3979 13.2969 70.5844 16.2905 70.5844 20.1319C70.5844 24.1705 69.2291 26.2623 65.331 26.2623Z" fill="#1B1B1B"/>
<path d="M76.4019 11.9973V29.7342H80.3273V9.93555H78.3822C77.0508 9.93555 76.4019 10.6419 76.4019 11.9973Z" fill="#1B1B1B"/>
<path d="M88.941 17.5905C90.1275 17.5905 90.9179 18.1271 91.3697 19.1438H95.4649C94.815 15.8956 92.6693 14.2812 89.0542 14.2812C84.4507 14.3697 82.1626 16.9336 82.1626 22.0481C82.2758 27.1883 84.5912 29.7867 89.1099 29.7867C92.5844 29.8751 94.7867 27.9221 95.4649 24.872H92.6428C92.4054 24.8696 92.1701 24.916 91.9514 25.0083C91.7327 25.1006 91.5353 25.2368 91.3715 25.4086C90.7526 26.1159 89.9878 26.4819 89.1117 26.4819C87.0225 26.5102 85.9775 25.0134 85.9775 22.0481C85.9775 19.0828 86.9642 17.5905 88.941 17.5905Z" fill="#1B1B1B"/>
<path d="M104.106 14.2852C99.5874 14.2852 97.3276 16.8553 97.3276 22.052C97.3276 27.1922 99.5874 29.7906 104.106 29.7906C108.625 29.7906 110.914 27.1922 110.914 22.052C110.913 16.8553 108.625 14.2852 104.106 14.2852ZM104.078 26.4292C102.157 26.4292 101.169 24.9607 101.141 22.052C101.141 19.0867 102.129 17.5899 104.106 17.5899C106.026 17.5899 106.987 19.0301 106.987 21.9389C106.959 24.9041 105.998 26.4292 104.078 26.4292Z" fill="#1B1B1B"/>
<path d="M119.131 14.2852C114.866 14.2852 112.719 16.407 112.719 20.6684V29.734H116.532V19.9054C116.561 18.352 117.408 17.5899 119.074 17.5899C120.741 17.5899 121.588 18.352 121.672 19.9054V27.8703C121.672 29.0559 122.291 29.6491 123.536 29.734H125.457V20.6684C125.485 16.4035 123.395 14.2852 119.131 14.2852Z" fill="#1B1B1B"/>
<path d="M135.651 9.93555H129.127C128.026 9.93555 127.15 10.8957 127.15 11.9973V29.7342H131.076V22.6172H135.934C139.775 22.6172 141.836 19.9056 141.836 16.1207C141.836 12.1104 139.718 9.93555 135.651 9.93555ZM134.944 19.1435H131.131V13.266H135.141C136.976 13.266 137.909 14.1978 137.909 16.0615C137.909 17.9252 136.922 19.1718 134.946 19.1435H134.944Z" fill="#1B1B1B"/>
<path d="M149.546 14.2852C146.098 14.2852 144.153 15.6405 143.699 18.4086H147.457C147.655 17.7013 148.389 17.3636 149.716 17.3636C151.27 17.3636 152.061 17.7871 152.146 18.635C152.146 19.4536 151.326 19.9337 149.716 20.1317C145.932 20.4986 143.334 21.4579 143.249 25.0456C143.249 28.3504 145.734 30.0161 149.321 29.7314C153.36 29.4493 155.845 27.6095 155.845 23.4896V18.406C155.759 15.6405 153.669 14.2852 149.546 14.2852ZM152.198 23.3234C152.198 25.4452 150.928 26.683 148.838 26.683C147.652 26.683 147.031 26.118 146.946 24.9316C146.946 23.83 147.708 23.1244 149.205 22.8415C150.23 22.6378 151.232 22.3352 152.199 21.938L152.198 23.3234Z" fill="#1B1B1B"/>
<path d="M164.316 17.5905C165.502 17.5905 166.292 18.1271 166.744 19.1438H170.839C170.19 15.8956 168.044 14.2812 164.429 14.2812C159.824 14.3697 157.537 16.9336 157.537 22.0481C157.65 27.1883 159.966 29.7867 164.484 29.7867C167.959 29.8751 170.161 27.9221 170.839 24.872H168.016C167.778 24.8696 167.543 24.916 167.324 25.0083C167.105 25.1006 166.908 25.2368 166.744 25.4086C166.125 26.1159 165.361 26.4819 164.484 26.4819C162.394 26.5102 161.35 25.0134 161.35 22.0481C161.35 19.0828 162.339 17.5905 164.316 17.5905Z" fill="#1B1B1B"/>
<path d="M180.554 20.5837L185.722 15.0483H181.204L176.572 20.3574V11.7718C176.572 10.7834 175.752 9.93555 174.764 9.93555H172.819V29.7342H176.575V24.0008C176.575 23.6056 176.773 23.351 177.169 23.267C177.648 23.267 178.129 23.6905 178.609 24.5374L181.481 29.7342H186L180.554 20.5837Z" fill="#1B1B1B"/>
</svg>
