<svg width="186" height="40" viewBox="0 0 186 40" fill="none" xmlns="http://www.w3.org/2000/svg">
<path d="M0 9.93652L17.21 19.8721V39.7442L0 29.8086V9.93652Z" fill="#EA7824"/>
<path d="M34.4191 9.93647L17.21 0L0 9.93647H34.4191Z" fill="#46B8E9"/>
<path d="M17.21 39.7442L34.4191 29.8086V9.93652L17.21 39.7442Z" fill="#F04F23"/>
<path d="M53.5547 18.9737C55.2212 18.2107 56.0125 16.912 55.9276 15.1606C55.8392 11.6303 53.6961 9.90809 49.5161 9.93638C46.0681 9.93638 43.9524 11.2917 43.1337 14.059C42.7659 15.4435 43.246 16.1213 44.5739 16.0924H46.6074C46.6958 14.0307 47.6241 13.014 49.3755 13.014C51.1269 13.014 51.9739 13.8326 51.9456 15.4426C51.9456 17.3876 50.7025 18.0949 48.586 18.0949H48.1625V20.7216H48.7558C51.2693 20.7499 52.5114 21.7383 52.5114 23.6586C52.5114 25.5789 51.4664 26.5107 49.4056 26.539C47.3447 26.5673 46.2979 25.494 46.2705 23.32H42.4574C42.2319 27.584 44.5474 29.7306 49.3773 29.7306C54.2345 29.7023 56.6349 27.6088 56.6349 23.4888C56.6331 21.2052 55.6164 19.7084 53.5547 18.9737Z" fill="white"/>
<path d="M65.8394 9.93555H60.304C58.9778 9.96384 58.3271 10.6702 58.3271 11.9973V29.7342H64.7935C66.5449 29.7342 67.9002 29.5928 68.8604 29.339C72.5604 28.3506 74.5938 24.8478 74.5938 20.1319C74.5947 14.0033 71.9397 9.93555 65.8394 9.93555ZM65.331 26.2623H62.1969V13.2969H65.8394C69.3979 13.2969 70.5844 16.2905 70.5844 20.1319C70.5844 24.1705 69.2291 26.2623 65.331 26.2623Z" fill="white"/>
<path d="M76.4014 11.9973V29.7342H80.3268V9.93555H78.3818C77.0503 9.93555 76.4014 10.6419 76.4014 11.9973Z" fill="white"/>
<path d="M88.9415 17.59C90.128 17.59 90.9184 18.1266 91.3702 19.1433H95.4653C94.8155 15.8951 92.6698 14.2808 89.0547 14.2808C84.4511 14.3692 82.1631 16.9331 82.1631 22.0476C82.2763 27.1878 84.5917 29.7862 89.1104 29.7862C92.5849 29.8746 94.7872 27.9216 95.4653 24.8715H92.6433C92.4059 24.8691 92.1706 24.9155 91.9519 25.0078C91.7332 25.1001 91.5358 25.2364 91.3719 25.4081C90.7531 26.1154 89.9883 26.4814 89.1122 26.4814C87.023 26.5097 85.978 25.0129 85.978 22.0476C85.978 19.0823 86.9647 17.59 88.9415 17.59Z" fill="white"/>
<path d="M104.107 14.2852C99.5879 14.2852 97.3281 16.8553 97.3281 22.052C97.3281 27.1922 99.5879 29.7906 104.107 29.7906C108.625 29.7906 110.914 27.1922 110.914 22.052C110.913 16.8553 108.625 14.2852 104.107 14.2852ZM104.078 26.4292C102.158 26.4292 101.17 24.9607 101.141 22.052C101.141 19.0867 102.13 17.5899 104.107 17.5899C106.027 17.5899 106.987 19.0301 106.987 21.9389C106.96 24.9041 105.999 26.4292 104.078 26.4292Z" fill="white"/>
<path d="M119.13 14.2852C114.865 14.2852 112.719 16.407 112.719 20.6684V29.734H116.532V19.9054C116.56 18.352 117.407 17.5899 119.074 17.5899C120.74 17.5899 121.587 18.352 121.671 19.9054V27.8703C121.671 29.0559 122.29 29.6491 123.536 29.734H125.456V20.6684C125.484 16.4035 123.394 14.2852 119.13 14.2852Z" fill="white"/>
<path d="M135.651 9.93555H129.127C128.026 9.93555 127.15 10.8957 127.15 11.9973V29.7342H131.076V22.6172H135.934C139.775 22.6172 141.836 19.9056 141.836 16.1207C141.836 12.1104 139.718 9.93555 135.651 9.93555ZM134.944 19.1435H131.131V13.266H135.141C136.976 13.266 137.909 14.1978 137.909 16.0615C137.909 17.9252 136.922 19.1718 134.946 19.1435H134.944Z" fill="white"/>
<path d="M149.546 14.2852C146.098 14.2852 144.153 15.6405 143.699 18.4086H147.457C147.655 17.7013 148.389 17.3636 149.716 17.3636C151.27 17.3636 152.061 17.7871 152.146 18.635C152.146 19.4536 151.326 19.9337 149.716 20.1317C145.932 20.4986 143.334 21.4579 143.249 25.0456C143.249 28.3504 145.734 30.0161 149.321 29.7314C153.36 29.4493 155.845 27.6095 155.845 23.4896V18.406C155.759 15.6405 153.669 14.2852 149.546 14.2852ZM152.198 23.3234C152.198 25.4452 150.928 26.683 148.838 26.683C147.652 26.683 147.031 26.118 146.946 24.9316C146.946 23.83 147.708 23.1244 149.205 22.8415C150.23 22.6378 151.232 22.3352 152.199 21.938L152.198 23.3234Z" fill="white"/>
<path d="M164.316 17.59C165.502 17.59 166.292 18.1266 166.744 19.1433H170.839C170.19 15.8951 168.044 14.2808 164.429 14.2808C159.824 14.3692 157.537 16.9331 157.537 22.0476C157.65 27.1878 159.966 29.7862 164.484 29.7862C167.959 29.8746 170.161 27.9216 170.839 24.8715H168.016C167.778 24.8691 167.543 24.9155 167.324 25.0078C167.105 25.1001 166.908 25.2364 166.744 25.4081C166.125 26.1154 165.361 26.4814 164.484 26.4814C162.394 26.5097 161.35 25.0129 161.35 22.0476C161.35 19.0823 162.339 17.59 164.316 17.59Z" fill="white"/>
<path d="M180.553 20.5837L185.722 15.0483H181.203L176.571 20.3574V11.7718C176.571 10.7834 175.752 9.93555 174.763 9.93555H172.818V29.7342H176.575V24.0008C176.575 23.6056 176.772 23.351 177.168 23.267C177.648 23.267 178.128 23.6905 178.608 24.5374L181.481 29.7342H186L180.553 20.5837Z" fill="white"/>
</svg>
