<svg width="31" height="26" viewBox="0 0 31 26" fill="none" xmlns="http://www.w3.org/2000/svg">
<path d="M4.42857 0H0V4.59302H4.42857V0Z" fill="#B6CDE0"/>
<path d="M8.85728 0H4.42871V4.59302H8.85728V0Z" fill="white"/>
<path d="M13.2855 0H8.85693V4.59302H13.2855V0Z" fill="#B6CDE0"/>
<path d="M17.7142 0H13.2856V4.59302H17.7142V0Z" fill="white"/>
<path d="M22.1429 0H17.7144V4.59302H22.1429V0Z" fill="#B6CDE0"/>
<path d="M30.9999 0H26.5713V4.59302H30.9999V0Z" fill="#B6CDE0"/>
<path d="M26.5716 0H22.1431V4.59302H26.5716V0Z" fill="white"/>
<path d="M4.42857 4.59277H0V9.18579H4.42857V4.59277Z" fill="white"/>
<path d="M8.85728 4.59277H4.42871V9.18579H8.85728V4.59277Z" fill="#B6CDE0"/>
<path d="M13.2855 4.59277H8.85693V9.18579H13.2855V4.59277Z" fill="white"/>
<path d="M17.7142 4.59277H13.2856V9.18579H17.7142V4.59277Z" fill="#B6CDE0"/>
<path d="M26.5716 4.59277H22.1431V9.18579H26.5716V4.59277Z" fill="#B6CDE0"/>
<path d="M22.1429 4.59277H17.7144V9.18579H22.1429V4.59277Z" fill="white"/>
<path d="M30.9999 4.59277H26.5713V9.18579H30.9999V4.59277Z" fill="white"/>
<path d="M4.42857 9.18555H0V13.7786H4.42857V9.18555Z" fill="#B6CDE0"/>
<path d="M8.85728 9.18555H4.42871V13.7786H8.85728V9.18555Z" fill="white"/>
<path d="M13.2855 9.18555H8.85693V13.7786H13.2855V9.18555Z" fill="#B6CDE0"/>
<path d="M17.7142 9.18555H13.2856V13.7786H17.7142V9.18555Z" fill="white"/>
<path d="M22.1429 9.18555H17.7144V13.7786H22.1429V9.18555Z" fill="#B6CDE0"/>
<path d="M30.9999 9.18555H26.5713V13.7786H30.9999V9.18555Z" fill="#B6CDE0"/>
<path d="M26.5716 9.18555H22.1431V13.7786H26.5716V9.18555Z" fill="white"/>
<path d="M2.87857 22.3331V25.9969H0V19.8246C0 19.4254 0.0681319 19.0544 0.197582 18.7188C0.33044 18.3831 0.510989 18.0899 0.742637 17.8461C0.974286 17.6023 1.25022 17.408 1.57044 17.2667C1.89066 17.1253 2.24495 17.0547 2.62989 17.0547H6.44187C6.82 17.0547 7.16747 17.1253 7.48769 17.2596C7.80791 17.3974 8.08725 17.5882 8.32231 17.832C8.55736 18.0758 8.74132 18.3655 8.87418 18.6976C9.00703 19.0297 9.07516 19.3936 9.07516 19.7822C9.07516 20.1461 9.00022 20.4853 8.85033 20.7962C8.70044 21.1071 8.50286 21.3757 8.26099 21.6018C8.01912 21.8279 7.73637 22.0081 7.41956 22.1353C7.10275 22.266 6.77912 22.3296 6.44527 22.3296H2.87857V22.3331ZM3.81538 18.6022C3.6178 18.6022 3.4611 18.6375 3.33846 18.7082C3.21582 18.7788 3.12385 18.8742 3.05571 18.9944C2.98758 19.1145 2.93989 19.2523 2.91604 19.4113C2.88879 19.5702 2.87857 19.7328 2.87857 19.9024V20.7892H5.27C5.61407 20.7892 5.85253 20.6761 5.9922 20.45C6.12846 20.2239 6.19659 19.9518 6.19659 19.6338C6.19659 19.3159 6.11824 19.0756 5.96495 18.8848C5.81165 18.694 5.58 18.5986 5.27 18.5986H3.81879L3.81538 18.6022Z" fill="#231F20"/>
<path d="M17.2884 17.0547C17.6563 17.0547 18.0004 17.1112 18.3172 17.2207C18.634 17.3303 18.9134 17.4857 19.1518 17.6871C19.3903 17.885 19.5811 18.1323 19.7173 18.4255C19.8536 18.7188 19.9217 19.0473 19.9217 19.4113V25.9969H17.067V19.4395C17.05 19.2523 17.0227 19.1039 16.9886 18.9944C16.9546 18.8848 16.9001 18.8 16.8217 18.74C16.7468 18.6834 16.6446 18.6446 16.5254 18.6269C16.4061 18.6092 16.263 18.5986 16.0995 18.5986H14.5563C14.3928 18.5986 14.2532 18.6092 14.1305 18.6269C14.0113 18.6446 13.9125 18.6834 13.8341 18.74C13.7558 18.7965 13.7013 18.8813 13.6672 18.9944C13.6332 19.1039 13.6161 19.2558 13.6161 19.4395V25.9969H10.7375V19.4113C10.7375 19.0473 10.8057 18.7188 10.9419 18.4255C11.0782 18.1323 11.2656 17.8814 11.5074 17.673C11.7493 17.4645 12.0252 17.3091 12.3421 17.2066C12.6589 17.1042 13.0029 17.0547 13.3708 17.0547H17.2782H17.2884Z" fill="#231F20"/>
<path d="M30.9726 23.1461C30.9999 23.4923 30.9658 23.8351 30.8704 24.1707C30.775 24.5099 30.6217 24.8102 30.4071 25.0787C30.1925 25.3472 29.9234 25.5627 29.5964 25.7323C29.2727 25.9019 28.8844 25.9867 28.4381 25.9867H24.5308C24.1458 25.9867 23.7915 25.916 23.4713 25.7747C23.1511 25.6334 22.8752 25.4391 22.6435 25.1953C22.4119 24.9515 22.2279 24.6583 22.095 24.3226C21.9622 23.987 21.8975 23.616 21.8975 23.2168V19.4434C21.8975 19.0619 21.969 18.7227 22.1155 18.4224C22.262 18.1256 22.4561 17.8747 22.7014 17.6769C22.9467 17.479 23.226 17.3236 23.5428 17.2176C23.8597 17.1116 24.1901 17.0586 24.5308 17.0586H30.9965V18.6061H25.7128C25.3892 18.6061 25.1508 18.652 25.0009 18.7474C24.851 18.8393 24.776 19.0725 24.776 19.447V23.2203C24.776 23.3899 24.7931 23.5453 24.8203 23.6937C24.851 23.8386 24.8987 23.9693 24.9702 24.0788C25.0383 24.1884 25.1337 24.2767 25.2598 24.3438C25.3858 24.411 25.5357 24.4427 25.7163 24.4427H27.2594C27.5694 24.4427 27.7977 24.3474 27.9544 24.1566C28.1077 23.9658 28.186 23.7149 28.186 23.404L28.1724 22.3512H26.3874V20.8037H30.9624L30.976 23.1496L30.9726 23.1461Z" fill="#231F20"/>
</svg>
