<svg width="34" height="26" viewBox="0 0 34 26" fill="none" xmlns="http://www.w3.org/2000/svg">
<path d="M0 24.6274V0.400255C0 0.235444 0.0706332 0.141266 0.235444 0.141266C0.635699 0.141266 1.01241 0.141266 1.55393 0.117722C2.09545 0.0941776 2.70761 0.0941774 3.3433 0.070633C3.979 0.0470886 4.66179 0.0470885 5.39167 0.023544C6.12155 -3.5961e-07 6.82788 0 7.53421 0C9.46485 0 11.0659 0.235444 12.3844 0.729876C13.5663 1.13125 14.644 1.79076 15.5393 2.66052C16.298 3.42167 16.8841 4.33704 17.258 5.34458C17.6145 6.32578 17.7977 7.36143 17.7996 8.40535C17.7996 10.4302 17.3287 12.1018 16.3869 13.4203C15.4408 14.737 14.1198 15.738 12.5963 16.2927C10.9952 16.8813 9.22941 17.0932 7.29877 17.0932C6.7337 17.0932 6.35699 17.0932 6.12155 17.0697C5.8861 17.0462 5.55648 17.0461 5.10914 17.0461V24.6039C5.11439 24.6426 5.11181 24.682 5.10155 24.7198C5.09129 24.7575 5.07356 24.7928 5.0494 24.8235C5.02525 24.8543 4.99516 24.8798 4.96094 24.8987C4.92671 24.9176 4.88903 24.9295 4.85015 24.9335H0.282533C0.0941778 24.9335 0 24.8393 0 24.6274ZM5.13268 4.68534V12.5963C5.4623 12.6198 5.76838 12.6433 6.05091 12.6433H7.29877C8.2179 12.6444 9.13153 12.5014 10.0064 12.2195C10.7569 11.9988 11.4275 11.5654 11.937 10.9717C12.4314 10.3831 12.6669 9.58257 12.6669 8.54662C12.689 7.81088 12.5012 7.08405 12.1254 6.45117C11.7328 5.83985 11.1554 5.36972 10.4773 5.10914C9.59337 4.76295 8.64762 4.60265 7.69902 4.63825C7.08687 4.63825 6.54534 4.63825 6.098 4.66179C5.77617 4.64075 5.4531 4.64863 5.13268 4.68534Z" fill="#31A8FF"/>
<path d="M32.4913 11.1599C31.7804 10.7855 31.0191 10.5159 30.2311 10.3594C29.3655 10.1634 28.4815 10.0608 27.5941 10.0533C27.1176 10.0369 26.6413 10.0924 26.1814 10.2181C25.8881 10.2792 25.628 10.447 25.4515 10.689C25.3326 10.8801 25.2675 11.0997 25.2632 11.3247C25.2741 11.5487 25.3567 11.7633 25.4986 11.9369C25.7218 12.1986 25.9937 12.4145 26.2991 12.5726C26.8407 12.8551 27.4057 13.1141 27.9708 13.3495C29.2428 13.7778 30.4599 14.3547 31.5966 15.0683C32.3698 15.5544 33.0092 16.2262 33.4566 17.0225C33.835 17.7736 34.021 18.6068 33.9982 19.4475C34.0173 20.5604 33.697 21.6526 33.0799 22.5789C32.4232 23.5188 31.5069 24.247 30.443 24.6744C29.2893 25.1688 27.8766 25.4278 26.1814 25.4278C25.1066 25.4321 24.0339 25.3296 22.9794 25.1217C22.149 24.9782 21.3414 24.7249 20.5778 24.3683C20.4958 24.3271 20.4275 24.2628 20.3815 24.1834C20.3355 24.1039 20.3137 24.0127 20.3189 23.921V19.8242C20.3168 19.784 20.3243 19.7439 20.3406 19.707C20.357 19.6702 20.3818 19.6378 20.413 19.6123C20.4462 19.593 20.4847 19.5849 20.5229 19.5891C20.561 19.5933 20.5968 19.6097 20.6249 19.6359C21.5319 20.1706 22.517 20.5598 23.5444 20.7896C24.4516 21.0256 25.3853 21.1443 26.3227 21.1427C27.2174 21.1427 27.8531 21.025 28.2769 20.8131C28.4659 20.7258 28.6261 20.5864 28.7387 20.4112C28.8513 20.2361 28.9116 20.0325 28.9126 19.8242C28.9126 19.4946 28.7242 19.1885 28.3475 18.8825C27.9708 18.5764 27.1938 18.2232 26.0401 17.7759C24.8566 17.3589 23.7327 16.789 22.6968 16.0807C21.9591 15.5549 21.3478 14.8712 20.9075 14.0794C20.5317 13.3358 20.3457 12.5108 20.3659 11.6779C20.3694 10.6732 20.6461 9.68843 21.1665 8.82901C21.7646 7.88384 22.6231 7.13164 23.6386 6.66292C24.7452 6.09786 26.1343 5.83887 27.806 5.83887C28.783 5.83915 29.7587 5.90996 30.7255 6.05077C31.4206 6.14483 32.101 6.32679 32.7503 6.59229C32.8538 6.62895 32.9384 6.70516 32.9857 6.80419C33.0129 6.8961 33.0287 6.99098 33.0328 7.08672V10.9245C33.0332 10.9702 33.0227 11.0154 33.0023 11.0563C32.9818 11.0973 32.9519 11.1327 32.9151 11.1599C32.7781 11.2092 32.6283 11.2092 32.4913 11.1599Z" fill="#31A8FF"/>
</svg>
