<svg width="20" height="20" viewBox="0 0 20 20" fill="none" xmlns="http://www.w3.org/2000/svg">
<g opacity="0.6">
<path d="M1 1L19 19" stroke="#1B1B1B" stroke-width="2" stroke-linecap="round" stroke-linejoin="round"/>
<path d="M14.86 14.8596C13.4614 15.9257 11.7583 16.5163 9.99999 16.545C4.27272 16.545 1 9.99957 1 9.99957C2.01773 8.10294 3.42929 6.44589 5.13999 5.13957M8.28181 3.65049C8.84499 3.51866 9.42159 3.45276 9.99999 3.45412C15.7273 3.45412 19 9.99957 19 9.99957C18.5033 10.9287 17.911 11.8034 17.2327 12.6096M11.7345 11.7341C11.5098 11.9753 11.2388 12.1687 10.9377 12.3028C10.6367 12.437 10.3116 12.5091 9.98206 12.515C9.65249 12.5208 9.32512 12.4601 9.01949 12.3367C8.71385 12.2132 8.43622 12.0295 8.20314 11.7964C7.97006 11.5633 7.78631 11.2857 7.66286 10.9801C7.53941 10.6744 7.47879 10.3471 7.4846 10.0175C7.49042 9.68792 7.56255 9.3629 7.69671 9.06181C7.83086 8.76072 8.02429 8.48974 8.26544 8.26503" stroke="#1B1B1B" stroke-width="2" stroke-linecap="round" stroke-linejoin="round"/>
</g>
</svg>
