<svg width="120" height="120" viewBox="0 0 120 120" fill="none" xmlns="http://www.w3.org/2000/svg">
<g filter="url(#filter0_d_401_5382)">
<circle cx="60" cy="60" r="30" fill="#1B1B1B"/>
<circle cx="60" cy="60" r="29.5" stroke="#292929"/>
</g>
<path d="M60.7071 50.2929C60.3166 49.9024 59.6834 49.9024 59.2929 50.2929L52.9289 56.6569C52.5384 57.0474 52.5384 57.6805 52.9289 58.0711C53.3195 58.4616 53.9526 58.4616 54.3431 58.0711L60 52.4142L65.6569 58.0711C66.0474 58.4616 66.6805 58.4616 67.0711 58.0711C67.4616 57.6805 67.4616 57.0474 67.0711 56.6569L60.7071 50.2929ZM61 70L61 51L59 51L59 70L61 70Z" fill="white"/>
<defs>
<filter id="filter0_d_401_5382" x="0" y="0" width="120" height="120" filterUnits="userSpaceOnUse" color-interpolation-filters="sRGB">
<feFlood flood-opacity="0" result="BackgroundImageFix"/>
<feColorMatrix in="SourceAlpha" type="matrix" values="0 0 0 0 0 0 0 0 0 0 0 0 0 0 0 0 0 0 127 0" result="hardAlpha"/>
<feOffset/>
<feGaussianBlur stdDeviation="15"/>
<feComposite in2="hardAlpha" operator="out"/>
<feColorMatrix type="matrix" values="0 0 0 0 0 0 0 0 0 0 0 0 0 0 0 0 0 0 0.25 0"/>
<feBlend mode="normal" in2="BackgroundImageFix" result="effect1_dropShadow_401_5382"/>
<feBlend mode="normal" in="SourceGraphic" in2="effect1_dropShadow_401_5382" result="shape"/>
</filter>
</defs>
</svg>
